<svg xmlns="http://www.w3.org/2000/svg" width="145.07" height="31.275" viewBox="0 0 145.07 31.275">
  <path id="site-logo" d="M-3310.775,112.163a12,12,0,0,1-2.7-.938,16.533,16.533,0,0,1-2.962-1.856,24.094,24.094,0,0,1-3.188-3.019q-1.537-1.725-3.15-3.676t-3-3.825c-.075-.125-.131-.181-.169-.168a1,1,0,0,0-.244.281q-1.087,1.8-1.987,3.432t-1.8,3.244a2.1,2.1,0,0,0-.244.507c-.062.187-.106.331-.131.431a3.7,3.7,0,0,0-.393-.057q-.207-.019-.356-.019a2.112,2.112,0,0,0-1.012.263,3.123,3.123,0,0,0-.713.488c-.15,0-.225-.038-.225-.113q.563-.675,1.369-1.819t1.744-2.644q.861-1.386,1.762-2.925t1.781-3.112q.881-1.575,1.669-3.112t1.462-2.925a.078.078,0,0,1,.019-.057.076.076,0,0,0,.019-.056c0-.076-.063-.112-.188-.112a19.2,19.2,0,0,0-2.062.112,18.166,18.166,0,0,1-1.913.113c-.275,0-.413-.076-.413-.225a.824.824,0,0,1,.076-.207c.05-.113.106-.225.168-.337a1.815,1.815,0,0,1,.206-.3c.076-.087.138-.131.188-.131,0,.2.125.338.374.413a6.553,6.553,0,0,0,.9.131q.6.057,1.049.094c.125,0,.269.006.431.018s.344.019.543.019q1.164,0,2.175-.037t2.513-.15a.251.251,0,0,1-.038.337q-.188,0-.656.019t-.806.056a.535.535,0,0,0-.45.3q-.974,1.538-2.081,3.375t-2.494,4.162q-.15.262-.057.319c.063.037.156.006.282-.094q1.949-1.162,3.825-2.344t3.45-2.232q.375-.224,1.35-.881l2.006-1.35q1.031-.694,1.875-1.256a6.37,6.37,0,0,1,.994-.6h.15a1.953,1.953,0,0,0,.431.187c.162.05.331.1.506.15a.169.169,0,0,1-.038.187,5.229,5.229,0,0,0-.787.338q-.525.262-1.481.787t-2.382,1.369q-1.426.844-3.488,2.119-1.124.713-2.362,1.518t-2.438,1.669a.3.3,0,0,0-.149.225q1.538,2.061,3.6,4.594a55.776,55.776,0,0,0,5.25,5.494,27.361,27.361,0,0,0,2.1,1.8,10.162,10.162,0,0,0,1.818,1.125,8.338,8.338,0,0,0,1.725.6,8.559,8.559,0,0,0,1.856.187,11.266,11.266,0,0,0,2.982-.394,7.414,7.414,0,0,0,2.344-1.03q.3-.188.3.075c0,.05-.049.112-.149.187a9.374,9.374,0,0,1-2.719,1.106,13.788,13.788,0,0,1-3.469.432A11.968,11.968,0,0,1-3310.775,112.163Zm20.738-3.956a2.026,2.026,0,0,1-.488-1.406,5.925,5.925,0,0,1,.356-1.931,21.889,21.889,0,0,1,1.106-2.532q-1.05,1.276-1.837,2.137a13.529,13.529,0,0,1-1.388,1.35,5.539,5.539,0,0,1-1.031.694,1.812,1.812,0,0,1-.769.206.8.8,0,0,1-.713-.281,1.3,1.3,0,0,1-.187-.732,2.853,2.853,0,0,1,.187-.881l.017-.047q-.294.249-.6.478a11.551,11.551,0,0,1-2.025,1.238,4.682,4.682,0,0,1-2.006.488,2.492,2.492,0,0,1-.825-.131.609.609,0,0,1-.374-.656,3.343,3.343,0,0,1,.374-1.331q.375-.806.882-1.706t1.049-1.838a15.978,15.978,0,0,0,.881-1.724.411.411,0,0,0,.019-.32c-.037-.087-.118-.094-.243-.018a11.425,11.425,0,0,0-.976.712q-.561.451-1.144.957t-1.125,1.031a11.248,11.248,0,0,0-.881.937q-.6.938-1.031,1.725t-1.068,1.762c-.1.15-.175.225-.225.225-.125,0-.231-.137-.319-.412a2.423,2.423,0,0,1-.131-.525,1.694,1.694,0,0,1,.469-.919q.468-.582,1.031-1.294.188-.375.379-.763-.356.39-.735.782a24.539,24.539,0,0,1-2.082,1.931,11.624,11.624,0,0,1-2.081,1.388,4.225,4.225,0,0,1-1.894.525,1.275,1.275,0,0,1-1.05-.375,1.453,1.453,0,0,1-.3-.937,4.419,4.419,0,0,1,.319-1.407,9.971,9.971,0,0,1,.956-1.894q-.487.637-1.125,1.35a14.072,14.072,0,0,1-1.312,1.293,9.13,9.13,0,0,1-1.35.976,2.457,2.457,0,0,1-1.2.393.7.7,0,0,1-.787-.787,5.035,5.035,0,0,1,.675-2.174,11.194,11.194,0,0,1,1.818-2.532,12.181,12.181,0,0,1,2.606-2.1,5.8,5.8,0,0,1,3.037-.881,2.123,2.123,0,0,1,.338-.526,1.185,1.185,0,0,1,.3-.225l1.05-.3.075.038a2.446,2.446,0,0,0-.355.469q-.168.281-.356.58.188,0,.563.038t.563.075c.125.05.187.112.187.188a.1.1,0,0,1-.113.113,3.024,3.024,0,0,0-.675-.113q-.45-.038-.675-.038-1.725,3.038-2.531,4.819a7.339,7.339,0,0,0-.806,2.644.911.911,0,0,0,.168.563.838.838,0,0,0,.694.225,3.191,3.191,0,0,0,1.426-.432,10.489,10.489,0,0,0,1.762-1.2,24.433,24.433,0,0,0,1.932-1.781q.694-.707,1.342-1.47.235-.484.477-.986.637-1.331,1.087-2.381a.367.367,0,0,1,.337-.187.574.574,0,0,1,.412.187.573.573,0,0,1,.187.412,4.152,4.152,0,0,1-.543,1.031,18.067,18.067,0,0,0-1.068,2.044q.713-.637,1.556-1.35t1.613-1.312q.768-.6,1.35-.994a1.913,1.913,0,0,1,.806-.393.363.363,0,0,1,.281.168.536.536,0,0,1,.131.32,1,1,0,0,1-.188.45q-.412.6-1.012,1.537t-1.143,1.931a19.9,19.9,0,0,0-.919,1.894,4,4,0,0,0-.375,1.425.817.817,0,0,0,.187.619.885.885,0,0,0,.6.168,3.162,3.162,0,0,0,1.5-.487,13.737,13.737,0,0,0,1.781-1.219q.36-.286.706-.6.113-.217.251-.432a14.944,14.944,0,0,1,3.093-3.676,8.888,8.888,0,0,1,4.219-1.875q1.8-3.15,3.45-5.663a60.274,60.274,0,0,1,3.6-4.912,36.773,36.773,0,0,1,3.206-3.562,12.216,12.216,0,0,1,3.281-2.326,5.365,5.365,0,0,1,2.213-.6,1.982,1.982,0,0,1,.731.113c.187.075.282.175.282.3a.648.648,0,0,1-.226.45,1.18,1.18,0,0,0-.3.637c-.05.175-.138.263-.263.263a.493.493,0,0,1-.224-.057c-.075-.037-.169-.081-.282-.131a2.22,2.22,0,0,0-.412-.131,3.251,3.251,0,0,0-.694-.057,4.968,4.968,0,0,0-1.275.169,4.055,4.055,0,0,0-1.163.506,13.716,13.716,0,0,0-2.268,1.912,20.358,20.358,0,0,0-2.232,2.7q-2.511,3.6-4.405,6.731t-3.169,5.607a38.128,38.128,0,0,0-1.913,4.218,8.537,8.537,0,0,0-.638,2.569,1.829,1.829,0,0,0,.282,1.05,1.03,1.03,0,0,0,.919.412,3.337,3.337,0,0,0,1.931-.637,9.393,9.393,0,0,0,1.743-1.594l.116-.137c0-.034,0-.07,0-.107a5.039,5.039,0,0,1,.675-2.174,11.2,11.2,0,0,1,1.819-2.532,12.145,12.145,0,0,1,2.606-2.1,5.8,5.8,0,0,1,3.038-.881,2.117,2.117,0,0,1,.337-.526,1.186,1.186,0,0,1,.3-.225l1.05-.3.075.038a2.4,2.4,0,0,0-.356.469q-.169.281-.356.58c.125,0,.313.013.563.038s.438.05.563.075c.125.05.188.112.188.188a.1.1,0,0,1-.113.113,3.037,3.037,0,0,0-.675-.113c-.3-.025-.526-.038-.675-.038q-1.725,3.038-2.532,4.819a7.364,7.364,0,0,0-.806,2.644.913.913,0,0,0,.169.563.839.839,0,0,0,.694.225,3.187,3.187,0,0,0,1.425-.432,10.441,10.441,0,0,0,1.762-1.2,24.262,24.262,0,0,0,1.931-1.781,28.132,28.132,0,0,0,1.894-2.138q.076-.112.15-.057a.2.2,0,0,1,.076.169q-.863,1.05-1.895,2.119a24.569,24.569,0,0,1-2.081,1.931,11.587,11.587,0,0,1-2.082,1.388,4.217,4.217,0,0,1-1.894.525,1.273,1.273,0,0,1-1.049-.375,1.448,1.448,0,0,1-.3-.937,4.419,4.419,0,0,1,.319-1.407,9.98,9.98,0,0,1,.957-1.894q-.487.637-1.125,1.35a14.042,14.042,0,0,1-1.312,1.293,9.232,9.232,0,0,1-1.35.976,2.458,2.458,0,0,1-1.2.393.7.7,0,0,1-.7-.358q-.18.215-.364.415a7.412,7.412,0,0,1-1.763,1.444,3.643,3.643,0,0,1-1.819.525A1.914,1.914,0,0,1-3290.037,108.206Zm10.875-8.794a10.743,10.743,0,0,0-2.063,2.119,13.47,13.47,0,0,0-1.444,2.419,4.972,4.972,0,0,0-.543,1.762c0,.2.076.3.225.3a1.536,1.536,0,0,0,.694-.3,10.34,10.34,0,0,0,1.068-.806,13.336,13.336,0,0,0,1.22-1.181,12.026,12.026,0,0,0,1.143-1.463q.6-.9,1.163-1.912t1.012-1.8l-.038-.038A3.93,3.93,0,0,0-3279.163,99.412Zm-30.638,0a10.737,10.737,0,0,0-2.062,2.119,13.357,13.357,0,0,0-1.444,2.419,4.955,4.955,0,0,0-.545,1.762c0,.2.076.3.226.3a1.536,1.536,0,0,0,.693-.3,10.366,10.366,0,0,0,1.069-.806,13.33,13.33,0,0,0,1.219-1.181,12.13,12.13,0,0,0,1.144-1.463q.6-.9,1.163-1.912t1.013-1.8l-.038-.038A3.935,3.935,0,0,0-3309.8,99.412Zm20.344-.094a5.889,5.889,0,0,0-1.369,1.256,16.19,16.19,0,0,0-2.025,3.019,4.975,4.975,0,0,0-.6,1.857.267.267,0,0,0,.15.262.57.57,0,0,0,.225.076,2.158,2.158,0,0,0,.956-.562,13.328,13.328,0,0,0,1.538-1.519,26.223,26.223,0,0,0,1.743-2.231,18.058,18.058,0,0,0,1.575-2.7A4.191,4.191,0,0,0-3289.456,99.319Zm-94.107,8.494a1.367,1.367,0,0,1-.262-.863,4.425,4.425,0,0,1,.336-1.462q.339-.9.806-1.875t.938-1.894q.469-.919.732-1.519c.024-.049.068-.143.13-.281s.031-.206-.094-.206a1.59,1.59,0,0,0-.675.338q-.487.337-1.068.787t-1.125.918q-.544.47-.806.732a4.671,4.671,0,0,0-.544.637q-.207.3-.413.675t-.412.806c-.138.288-.319.644-.544,1.069a.324.324,0,0,1-.263.149c-.125,0-.281-.131-.469-.393a1.23,1.23,0,0,1-.281-.581,5.08,5.08,0,0,1,.712-1.537q.713-1.238,2.063-3.6a10.067,10.067,0,0,1-.956.487,1.846,1.846,0,0,1-.619.188,4.334,4.334,0,0,0-.675-1.238,1.134,1.134,0,0,0-.9-.45,1.433,1.433,0,0,0-1.462.918,10.694,10.694,0,0,0-.6,2.344,11.877,11.877,0,0,1-.432,1.8,4.514,4.514,0,0,1-.788,1.48,3.505,3.505,0,0,1-1.293.976,4.831,4.831,0,0,1-1.987.356,3.9,3.9,0,0,1-1.932-.45,1.391,1.391,0,0,1-.732-.9,2.3,2.3,0,0,1,.338-.657c.225-.362.412-.669.563-.918q.188,0,.076.262a2.48,2.48,0,0,0,0,.619,2.173,2.173,0,0,0,.224.769,1.753,1.753,0,0,0,.6.656,1.967,1.967,0,0,0,1.125.282,1.858,1.858,0,0,0,1.313-.488,3.767,3.767,0,0,0,.862-1.237,8.736,8.736,0,0,0,.544-1.669q.207-.919.394-1.744a4.426,4.426,0,0,1,.127-.484,7.924,7.924,0,0,1-1.158,1.065,3.367,3.367,0,0,1-2.082.694,2.72,2.72,0,0,1-1.256-.319,2.434,2.434,0,0,1-.994-.957q-.262.6-.675,1.369a12.9,12.9,0,0,1-.975,1.537,9.591,9.591,0,0,1-1.256,1.407,7,7,0,0,1-1.481,1.05,2.906,2.906,0,0,1-1.125.3q-1.35,0-1.35-1.2a4.268,4.268,0,0,1,.244-1.388,8.584,8.584,0,0,1,.619-1.388,12.869,12.869,0,0,1,.805-1.274,7.977,7.977,0,0,1,.806-.976,7.828,7.828,0,0,1,1.8-1.463,5.2,5.2,0,0,1,2.175-.712,6.091,6.091,0,0,1,.225-.694.687.687,0,0,1,.525-.469l.375-.075a1.364,1.364,0,0,0,.337-.113.21.21,0,0,1,.225-.019c.075.037.087.106.038.206a3.109,3.109,0,0,0-.394,1.05,6.887,6.887,0,0,0-.131,1.387,3.387,3.387,0,0,0,.394,1.725,1.451,1.451,0,0,0,1.369.675,2.73,2.73,0,0,0,1.762-.637,6.847,6.847,0,0,0,1.312-1.388q.066-.162.2-.128a2.653,2.653,0,0,1,.887-.884,4.266,4.266,0,0,1,2.25-.637,2.124,2.124,0,0,1,1.445.393,4.1,4.1,0,0,1,.731.881.817.817,0,0,0,.75-.3q1.088-1.949,2.381-4.05t2.7-4.05a33.575,33.575,0,0,1,2.907-3.525,14.573,14.573,0,0,1,3-2.475,14.741,14.741,0,0,1,1.875-.919,5.731,5.731,0,0,1,2.212-.468,4.592,4.592,0,0,1,1.744.3q.732.3.732.6-.076.3-.15.618c-.05.212-.1.444-.15.694q-.15.112-.225-.038a1.231,1.231,0,0,0-.113-.487,1.316,1.316,0,0,0-.431-.507,2.806,2.806,0,0,0-.844-.412,4.489,4.489,0,0,0-1.349-.169,6.193,6.193,0,0,0-3.769,1.369,18.754,18.754,0,0,0-3.919,4.481q-.713,1.05-1.575,2.475t-1.763,3q-.9,1.574-1.8,3.206t-1.687,3.094a.861.861,0,0,0-.075.3c0,.05.05.025.15-.075a23.343,23.343,0,0,1,2.25-1.95A25.273,25.273,0,0,1-3380,98.625a1.18,1.18,0,0,1,.637-.187,1.22,1.22,0,0,1,.3.038.2.2,0,0,1,.15.225.253.253,0,0,1-.076.187,12.223,12.223,0,0,0-.975,1.537q-.562,1.012-1.087,2.137t-.9,2.156a5.088,5.088,0,0,0-.375,1.594,1.188,1.188,0,0,0,.206.75.881.881,0,0,0,.732.263,4.7,4.7,0,0,0,2.569-1.181,25.6,25.6,0,0,0,3.276-3.179q.2-.4.437-.815.506-.9,1.012-1.725t.806-1.238a1.416,1.416,0,0,1,.656-.506,2.062,2.062,0,0,1,.619-.206c.124,0,.187.037.187.112a.715.715,0,0,1-.057.225.633.633,0,0,1-.13.225q-.487.749-.995,1.65t-.919,1.743a13.777,13.777,0,0,0-.656,1.557,3.73,3.73,0,0,0-.243,1.125.815.815,0,0,0,.243.656.983.983,0,0,0,.656.206,3.419,3.419,0,0,0,1.651-.507,12.923,12.923,0,0,0,1.781-1.219q.542-.437,1.034-.9a11.5,11.5,0,0,1,1.591-2.115,12.133,12.133,0,0,1,2.606-2.1,5.8,5.8,0,0,1,3.036-.881,2.092,2.092,0,0,1,.339-.526,1.185,1.185,0,0,1,.3-.225l1.049-.3.076.038a2.409,2.409,0,0,0-.356.469q-.169.281-.356.58.188,0,.563.038t.563.075c.125.05.187.112.187.188a.1.1,0,0,1-.113.113,3.016,3.016,0,0,0-.674-.113q-.451-.038-.675-.038-1.726,3.038-2.532,4.819a7.359,7.359,0,0,0-.806,2.644.912.912,0,0,0,.169.563.837.837,0,0,0,.693.225,3.186,3.186,0,0,0,1.426-.432,10.441,10.441,0,0,0,1.762-1.2,24.22,24.22,0,0,0,1.931-1.781q.435-.443.853-.908l.048-.085q.618-1.107,1.519-2.644t2.212-3.637q.6-.976,1.369-2.119t1.612-2.325q.844-1.181,1.725-2.325t1.706-2.082q.6-.675,1.293-1.368a15.158,15.158,0,0,1,1.444-1.275,12.268,12.268,0,0,1,1.556-1.031,6.139,6.139,0,0,1,1.631-.637c.25-.05.494-.1.732-.15a3.336,3.336,0,0,1,.693-.075,2.572,2.572,0,0,1,.657.094,2.707,2.707,0,0,1,.656.263,1.665,1.665,0,0,1,.506.431,1,1,0,0,1,.207.637,1.83,1.83,0,0,1-.207.825,3.041,3.041,0,0,0-.281.937c0,.125-.044.194-.131.206s-.131-.043-.131-.168a.547.547,0,0,1,.038-.206.55.55,0,0,0,.038-.206,1.383,1.383,0,0,0-.226-.787,1.723,1.723,0,0,0-.58-.544,2.753,2.753,0,0,0-.769-.3,3.59,3.59,0,0,0-.789-.094,6.843,6.843,0,0,0-2.156.45,7.649,7.649,0,0,0-2.793,1.987,28.517,28.517,0,0,0-2.719,3.281q-1.331,1.856-2.532,3.806-.749,1.238-1.687,2.831t-1.8,3.112q-.862,1.519-1.537,2.7t-.862,1.594c-.1.2-.138.3-.113.3.049,0,.149-.076.3-.225q.637-.639,1.312-1.237t1.462-1.313a2.227,2.227,0,0,1-.037-.487q0-.3.468-.581a3.39,3.39,0,0,1,.732-.356c.051,0,.075.05.075.15a.416.416,0,0,0,.038.187q.188-.15.862-.732t1.462-1.2q.787-.618,1.444-1.125a2.481,2.481,0,0,1,.806-.506.282.282,0,0,1,.206.094,1.182,1.182,0,0,1,.206.393c0,.15-.124.263-.374.338a5.95,5.95,0,0,0-1.087.526,14.254,14.254,0,0,0-1.294.862q-.656.487-1.275.975t-.994.825a10.06,10.06,0,0,0,.15,1.087q.112.6.263,1.2t.355,1.181a9.276,9.276,0,0,0,.431,1.031,1.222,1.222,0,0,0,.544.6,1.553,1.553,0,0,0,.731.187,2.373,2.373,0,0,0,1.256-.45,9.207,9.207,0,0,0,1.406-1.144,17.4,17.4,0,0,0,1.369-1.5l.07-.087q.112-.208.23-.419.506-.9,1.013-1.725t.806-1.238a1.406,1.406,0,0,1,.656-.506,2.066,2.066,0,0,1,.618-.206c.125,0,.187.037.187.112a.706.706,0,0,1-.056.225.633.633,0,0,1-.131.225q-.487.749-.994,1.65t-.919,1.743a13.6,13.6,0,0,0-.656,1.557,3.707,3.707,0,0,0-.244,1.125.812.812,0,0,0,.244.656.981.981,0,0,0,.656.206,3.413,3.413,0,0,0,1.65-.507,12.872,12.872,0,0,0,1.782-1.219,16.9,16.9,0,0,0,1.631-1.5,14.559,14.559,0,0,0,1.163-1.35c.125-.125.193-.157.206-.094a.553.553,0,0,1-.056.282,17.047,17.047,0,0,1-2.063,2.212,17.753,17.753,0,0,1-2.137,1.688,6.758,6.758,0,0,1-1.537.751,4.571,4.571,0,0,1-1.426.262,4.437,4.437,0,0,1-.525-.037,1.344,1.344,0,0,1-.543-.188,1.371,1.371,0,0,1-.413-.393,1.136,1.136,0,0,1-.168-.656,3.557,3.557,0,0,1,.375-1.331q.1-.217.2-.438-.352.39-.708.757a16.05,16.05,0,0,1-1.293,1.2,8.648,8.648,0,0,1-1.163.825,3.585,3.585,0,0,1-1.537.45,1.653,1.653,0,0,1-.863-.225,1.835,1.835,0,0,1-.656-.806,8.148,8.148,0,0,1-.525-1.594q-.245-1.012-.545-2.587-1.2,1.162-2.4,2.4a13.1,13.1,0,0,0-2.025,2.7.292.292,0,0,1-.3.187.46.46,0,0,1-.413-.319,1.384,1.384,0,0,1-.149-.581v-.15a.325.325,0,0,1,.037-.149,11.933,11.933,0,0,0,.787-1.294q.231-.429.525-.963l-.169.176a24.539,24.539,0,0,1-2.082,1.931,11.548,11.548,0,0,1-2.081,1.388,4.22,4.22,0,0,1-1.894.525,1.275,1.275,0,0,1-1.05-.375,1.453,1.453,0,0,1-.3-.937,4.419,4.419,0,0,1,.319-1.407,9.934,9.934,0,0,1,.957-1.894q-.489.637-1.125,1.35a14.168,14.168,0,0,1-1.313,1.293,9.13,9.13,0,0,1-1.35.976,2.455,2.455,0,0,1-1.2.393.7.7,0,0,1-.787-.787,4.748,4.748,0,0,1,.58-1.986,17.2,17.2,0,0,1-1.968,1.536,6.738,6.738,0,0,1-1.537.751,4.561,4.561,0,0,1-1.425.262,4.438,4.438,0,0,1-.526-.037,1.349,1.349,0,0,1-.543-.188,1.374,1.374,0,0,1-.412-.393,1.137,1.137,0,0,1-.169-.656,3.555,3.555,0,0,1,.375-1.33q-.315.333-.637.655a21.575,21.575,0,0,1-2.1,1.856,11.3,11.3,0,0,1-2.044,1.275,4.311,4.311,0,0,1-1.818.469A1.178,1.178,0,0,1-3383.563,107.813Zm-14.4-8.981a4.8,4.8,0,0,0-.9.75,11.713,11.713,0,0,0-.9,1.068,13.283,13.283,0,0,0-.824,1.237,13.846,13.846,0,0,0-.882,1.781,4.283,4.283,0,0,0-.355,1.819,1.247,1.247,0,0,0,.094.488.413.413,0,0,0,.431.225,2.123,2.123,0,0,0,1.387-.713,11.117,11.117,0,0,0,1.426-1.669,13.506,13.506,0,0,0,1.144-1.931,5.743,5.743,0,0,0,.544-1.5,5.889,5.889,0,0,1-.113-.787c-.025-.3-.038-.588-.038-.863,0-.125-.05-.187-.15-.187A1.628,1.628,0,0,0-3397.963,98.832Zm33.113.58a10.735,10.735,0,0,0-2.063,2.119,13.456,13.456,0,0,0-1.444,2.419,4.947,4.947,0,0,0-.544,1.762c0,.2.075.3.225.3a1.535,1.535,0,0,0,.694-.3,10.366,10.366,0,0,0,1.068-.806,13.206,13.206,0,0,0,1.219-1.181,12.033,12.033,0,0,0,1.144-1.463q.6-.9,1.163-1.912t1.012-1.8l-.038-.038A3.93,3.93,0,0,0-3364.85,99.412Zm-47.194,7.5a.3.3,0,0,1,.095-.263,6.241,6.241,0,0,0,.9-.957q.525-.656,1.088-1.5t1.068-1.763q.506-.918.882-1.705a13.4,13.4,0,0,0,.75-2.213,9.58,9.58,0,0,0,.338-2.362,8.6,8.6,0,0,0-.206-1.894,4.668,4.668,0,0,0-.694-1.631,3.417,3.417,0,0,0-1.294-1.125,4.277,4.277,0,0,0-1.968-.413,5.264,5.264,0,0,0-2.231.413,4.032,4.032,0,0,0-1.556,1.35.315.315,0,0,1-.3.131q-.187-.018,0-.319a6.8,6.8,0,0,1,2.551-2.062,7.612,7.612,0,0,1,3.149-.638,3.843,3.843,0,0,1,1.876.432,3.636,3.636,0,0,1,1.275,1.143,4.909,4.909,0,0,1,.712,1.67,8.54,8.54,0,0,1,.225,1.968,9.834,9.834,0,0,1-.056.994q-.056.544-.131,1.012c-.05.312-.094.588-.131.825a4.147,4.147,0,0,0-.056.431.294.294,0,0,0,.056.281c.062.063.144.044.244-.056q2.7-2.063,5.381-4.219t5.306-3.993a14.835,14.835,0,0,1,1.8-1.087,4.3,4.3,0,0,1,1.987-.526,1.239,1.239,0,0,1,.844.356,2.761,2.761,0,0,1,.544.619c0,.1-.038.137-.113.112a.915.915,0,0,0-.337-.076h-.488a7.132,7.132,0,0,0-2.925.881,34.924,34.924,0,0,0-3.844,2.232q-2.042,1.35-4.068,2.981t-3.563,3.131q-.449.451-.824.863a5.983,5.983,0,0,0-.675.9q-.938,1.65-1.687,3.056a12.771,12.771,0,0,0-1.012,2.306.651.651,0,0,1-.113.244c-.051.062-.176.081-.375.056a7.134,7.134,0,0,0-.863-.075,1.98,1.98,0,0,0-.506.056,1.261,1.261,0,0,0-.393.188q-.188.131-.526.356a.134.134,0,0,1-.041.007C-3412,107.033-3412.034,106.993-3412.044,106.913Zm69.807-12.788a1.49,1.49,0,0,1,.356-.937,1.083,1.083,0,0,1,.881-.45.431.431,0,0,1,.488.487,1.373,1.373,0,0,1-.394.9,1.154,1.154,0,0,1-.881.45A.4.4,0,0,1-3342.237,94.125Zm-28.725,0a1.489,1.489,0,0,1,.356-.937,1.082,1.082,0,0,1,.881-.45.431.431,0,0,1,.488.487,1.373,1.373,0,0,1-.394.9,1.153,1.153,0,0,1-.881.45A.4.4,0,0,1-3370.963,94.125Z" transform="translate(3415.269 -81.15)" fill="#8e795e"/>
</svg>
